<svg width="44" height="44" viewBox="0 0 44 44" fill="none" xmlns="http://www.w3.org/2000/svg">
<path d="M37.125 37.1165V19.843C37.1219 19.6527 37.0808 19.465 37.0041 19.2908C36.9273 19.1167 36.8165 18.9596 36.6781 18.829L22.9281 6.33365C22.6746 6.10175 22.3435 5.97314 22 5.97314C21.6565 5.97314 21.3254 6.10175 21.0719 6.33365L7.32187 18.829C7.18351 18.9596 7.07269 19.1167 6.99595 19.2908C6.9192 19.465 6.87808 19.6527 6.875 19.843V37.1165" stroke="#4A60A1" stroke-width="2.75" stroke-linecap="round" stroke-linejoin="round"/>
<path d="M2.75 37.1157H41.25" stroke="#4A60A1" stroke-width="2.75" stroke-linecap="round" stroke-linejoin="round"/>
<path d="M26.125 37.1157V27.4907C26.125 27.126 25.9801 26.7763 25.7223 26.5184C25.4644 26.2606 25.1147 26.1157 24.75 26.1157H19.25C18.8853 26.1157 18.5356 26.2606 18.2777 26.5184C18.0199 26.7763 17.875 27.126 17.875 27.4907V37.1157" stroke="#4A60A1" stroke-width="2.75" stroke-linecap="round" stroke-linejoin="round"/>
</svg>
