<svg width="20" height="20" viewBox="0 0 20 20" fill="none" xmlns="http://www.w3.org/2000/svg">
<g clip-path="url(#clip0_308_2058)">
<path d="M0 2.31346C0 1.64005 0.225232 1.0845 0.675676 0.646799C1.12612 0.209082 1.71172 -0.00976562 2.43243 -0.00976562C3.14029 -0.00976562 3.71299 0.205709 4.15058 0.636698C4.60102 1.08114 4.82625 1.66025 4.82625 2.37407C4.82625 3.02053 4.60747 3.55924 4.16988 3.99023C3.71944 4.43467 3.12741 4.65689 2.39382 4.65689H2.37452C1.66666 4.65689 1.09396 4.43467 0.656371 3.99023C0.218784 3.54578 0 2.98686 0 2.31346ZM0.250965 19.9902V6.49527H4.53668V19.9902H0.250965ZM6.9112 19.9902H11.1969V12.4549C11.1969 11.9835 11.2484 11.6198 11.3514 11.364C11.5315 10.906 11.805 10.5188 12.1718 10.2023C12.5386 9.88583 12.9987 9.72759 13.5521 9.72759C14.9936 9.72759 15.7143 10.7444 15.7143 12.7781V19.9902H20V12.2528C20 10.2596 19.5496 8.7478 18.6486 7.71749C17.7477 6.68719 16.5573 6.17204 15.0772 6.17204C13.417 6.17204 12.1236 6.91952 11.1969 8.41446V8.45487H11.1776L11.1969 8.41446V6.49527H6.9112C6.93693 6.92624 6.94981 8.2663 6.94981 10.5155C6.94981 12.7646 6.93693 15.9229 6.9112 19.9902Z" fill="#4A60A1"/>
</g>
<defs>
<clipPath id="clip0_308_2058">
<rect width="20" height="20" fill="white" transform="translate(0 -0.00976562)"/>
</clipPath>
</defs>
</svg>
